name rise30.6535peak61.5555fall82.9339.mot
datacolumns 19
datarows 27
range 4.73997500000000 4.78331500000000
endheader
time	ground_force1_vx	ground_force1_vy	ground_force1_vz	ground_force1_px	ground_force1_py	ground_force1_pz	ground_force2_vx	ground_force2_vy	ground_force2_vz	ground_force2_px	ground_force2_py	ground_force2_pz	ground_torque1_x	ground_torque1_y	ground_torque1_z	ground_torque2_x	ground_torque2_y	ground_torque2_z	
4.73997500000000	8.01900300000000	708.66891299999997	39.82927600000000	0.21548700000000	0.00000000000000	0.11837500000000	0.00000000000000	0.00000000000000	0.00000000000000	0.00000000000000	0.00000000000000	0.00000000000000	0.00000000000000	15.22246800000000	0.00000000000000	0.00000000000000	0.00000000000000	0.00000000000000	
4.74164100000000	7.46121900000000	709.71788400000003	39.85796200000000	0.21432500000000	0.00000000000000	0.11834600000000	0.00000000000000	0.00000000000000	0.00000000000000	0.00000000000000	0.00000000000000	0.00000000000000	0.00000000000000	15.30167300000000	0.00000000000000	0.00000000000000	0.00000000000000	0.00000000000000	
4.74331500000000	6.89031100000000	710.79893400000003	39.89215700000000	0.21314200000000	0.00000000000000	0.11831900000000	0.00000000000000	0.00000000000000	0.00000000000000	0.00000000000000	0.00000000000000	0.00000000000000	0.00000000000000	15.38563100000000	0.00000000000000	0.00000000000000	0.00000000000000	0.00000000000000	
4.74498100000000	6.30662700000000	711.91199400000005	39.93167400000000	0.21194000000000	0.00000000000000	0.11829400000000	0.00000000000000	0.00000000000000	0.00000000000000	0.00000000000000	0.00000000000000	0.00000000000000	0.00000000000000	15.47421900000000	0.00000000000000	0.00000000000000	0.00000000000000	0.00000000000000	
4.74664500000000	5.71055900000000	713.05701199999999	39.97633000000000	0.21072200000000	0.00000000000000	0.11827100000000	0.00000000000000	0.00000000000000	0.00000000000000	0.00000000000000	0.00000000000000	0.00000000000000	0.00000000000000	15.56730400000000	0.00000000000000	0.00000000000000	0.00000000000000	0.00000000000000	
4.74831400000000	5.10253800000000	714.23396000000002	40.02594000000000	0.20948800000000	0.00000000000000	0.11824900000000	0.00000000000000	0.00000000000000	0.00000000000000	0.00000000000000	0.00000000000000	0.00000000000000	0.00000000000000	15.66475100000000	0.00000000000000	0.00000000000000	0.00000000000000	0.00000000000000	
4.74997600000000	4.48303300000000	715.44281999999998	40.08032400000000	0.20824100000000	0.00000000000000	0.11822900000000	0.00000000000000	0.00000000000000	0.00000000000000	0.00000000000000	0.00000000000000	0.00000000000000	0.00000000000000	15.76641700000000	0.00000000000000	0.00000000000000	0.00000000000000	0.00000000000000	
4.75164900000000	3.85255200000000	716.68358799999999	40.13929900000000	0.20698300000000	0.00000000000000	0.11821000000000	0.00000000000000	0.00000000000000	0.00000000000000	0.00000000000000	0.00000000000000	0.00000000000000	0.00000000000000	15.87215600000000	0.00000000000000	0.00000000000000	0.00000000000000	0.00000000000000	
4.75331300000000	3.21163300000000	717.95626500000003	40.20268800000000	0.20571600000000	0.00000000000000	0.11819300000000	0.00000000000000	0.00000000000000	0.00000000000000	0.00000000000000	0.00000000000000	0.00000000000000	0.00000000000000	15.98181400000000	0.00000000000000	0.00000000000000	0.00000000000000	0.00000000000000	
4.75497700000000	2.56084800000000	719.26085300000000	40.27031500000000	0.20444300000000	0.00000000000000	0.11817700000000	0.00000000000000	0.00000000000000	0.00000000000000	0.00000000000000	0.00000000000000	0.00000000000000	0.00000000000000	16.09523400000000	0.00000000000000	0.00000000000000	0.00000000000000	0.00000000000000	
4.75666400000000	1.90079400000000	720.59735400000000	40.34201000000000	0.20316600000000	0.00000000000000	0.11816100000000	0.00000000000000	0.00000000000000	0.00000000000000	0.00000000000000	0.00000000000000	0.00000000000000	0.00000000000000	16.21225200000000	0.00000000000000	0.00000000000000	0.00000000000000	0.00000000000000	
4.75830900000000	1.23209900000000	721.96576000000005	40.41760300000000	0.20188600000000	0.00000000000000	0.11814700000000	0.00000000000000	0.00000000000000	0.00000000000000	0.00000000000000	0.00000000000000	0.00000000000000	0.00000000000000	16.33270000000000	0.00000000000000	0.00000000000000	0.00000000000000	0.00000000000000	
4.75998300000000	0.55541000000000	723.36605199999997	40.49693200000000	0.20060700000000	0.00000000000000	0.11813300000000	0.00000000000000	0.00000000000000	0.00000000000000	0.00000000000000	0.00000000000000	0.00000000000000	0.00000000000000	16.45640700000000	0.00000000000000	0.00000000000000	0.00000000000000	0.00000000000000	
4.76164400000000	-0.12860300000000	724.79819399999997	40.57983800000000	0.19933000000000	0.00000000000000	0.11812000000000	0.00000000000000	0.00000000000000	0.00000000000000	0.00000000000000	0.00000000000000	0.00000000000000	0.00000000000000	16.58319300000000	0.00000000000000	0.00000000000000	0.00000000000000	0.00000000000000	
4.76331200000000	-0.81925400000000	726.26212699999996	40.66616700000000	0.19805700000000	0.00000000000000	0.11810700000000	0.00000000000000	0.00000000000000	0.00000000000000	0.00000000000000	0.00000000000000	0.00000000000000	0.00000000000000	16.71287800000000	0.00000000000000	0.00000000000000	0.00000000000000	0.00000000000000	
4.76497700000000	-1.51583900000000	727.75776599999995	40.75577300000000	0.19679100000000	0.00000000000000	0.11809500000000	0.00000000000000	0.00000000000000	0.00000000000000	0.00000000000000	0.00000000000000	0.00000000000000	0.00000000000000	16.84527400000000	0.00000000000000	0.00000000000000	0.00000000000000	0.00000000000000	
4.76664300000000	-2.21764400000000	729.28499199999999	40.84851500000000	0.19553200000000	0.00000000000000	0.11808200000000	0.00000000000000	0.00000000000000	0.00000000000000	0.00000000000000	0.00000000000000	0.00000000000000	0.00000000000000	16.98019200000000	0.00000000000000	0.00000000000000	0.00000000000000	0.00000000000000	
4.76831100000000	-2.92394300000000	730.84365000000003	40.94425700000000	0.19428500000000	0.00000000000000	0.11807000000000	0.00000000000000	0.00000000000000	0.00000000000000	0.00000000000000	0.00000000000000	0.00000000000000	0.00000000000000	17.11743500000000	0.00000000000000	0.00000000000000	0.00000000000000	0.00000000000000	
4.76997900000000	-3.63400400000000	732.43354299999999	41.04287200000000	0.19304900000000	0.00000000000000	0.11805700000000	0.00000000000000	0.00000000000000	0.00000000000000	0.00000000000000	0.00000000000000	0.00000000000000	0.00000000000000	17.25680700000000	0.00000000000000	0.00000000000000	0.00000000000000	0.00000000000000	
4.77164700000000	-4.34708900000000	734.05442300000004	41.14424100000000	0.19182600000000	0.00000000000000	0.11804400000000	0.00000000000000	0.00000000000000	0.00000000000000	0.00000000000000	0.00000000000000	0.00000000000000	0.00000000000000	17.39810400000000	0.00000000000000	0.00000000000000	0.00000000000000	0.00000000000000	
4.77331000000000	-5.06246000000000	735.70599400000003	41.24825200000000	0.19061900000000	0.00000000000000	0.11803100000000	0.00000000000000	0.00000000000000	0.00000000000000	0.00000000000000	0.00000000000000	0.00000000000000	0.00000000000000	17.54112100000000	0.00000000000000	0.00000000000000	0.00000000000000	0.00000000000000	
4.77497700000000	-5.77937600000000	737.38789799999995	41.35479900000000	0.18942800000000	0.00000000000000	0.11801700000000	0.00000000000000	0.00000000000000	0.00000000000000	0.00000000000000	0.00000000000000	0.00000000000000	0.00000000000000	17.68565000000000	0.00000000000000	0.00000000000000	0.00000000000000	0.00000000000000	
4.77664400000000	-6.49710100000000	739.09971900000005	41.46378600000000	0.18825600000000	0.00000000000000	0.11800300000000	0.00000000000000	0.00000000000000	0.00000000000000	0.00000000000000	0.00000000000000	0.00000000000000	0.00000000000000	17.83148000000000	0.00000000000000	0.00000000000000	0.00000000000000	0.00000000000000	
4.77831600000000	-7.21490200000000	740.84096999999997	41.57512500000000	0.18710200000000	0.00000000000000	0.11798800000000	0.00000000000000	0.00000000000000	0.00000000000000	0.00000000000000	0.00000000000000	0.00000000000000	0.00000000000000	17.97839700000000	0.00000000000000	0.00000000000000	0.00000000000000	0.00000000000000	
4.77997700000000	-7.93205400000000	742.61109699999997	41.68873600000000	0.18596900000000	0.00000000000000	0.11797300000000	0.00000000000000	0.00000000000000	0.00000000000000	0.00000000000000	0.00000000000000	0.00000000000000	0.00000000000000	18.12618500000000	0.00000000000000	0.00000000000000	0.00000000000000	0.00000000000000	
4.78164700000000	-8.64784000000000	744.40946699999995	41.80454800000000	0.18485600000000	0.00000000000000	0.11795700000000	0.00000000000000	0.00000000000000	0.00000000000000	0.00000000000000	0.00000000000000	0.00000000000000	0.00000000000000	18.27462600000000	0.00000000000000	0.00000000000000	0.00000000000000	0.00000000000000	
4.78331500000000	-9.36155400000000	746.23537099999999	41.92249700000000	0.18376500000000	0.00000000000000	0.11794000000000	0.00000000000000	0.00000000000000	0.00000000000000	0.00000000000000	0.00000000000000	0.00000000000000	0.00000000000000	18.42350300000000	0.00000000000000	0.00000000000000	0.00000000000000	0.00000000000000	
